<svg width="24" height="24" viewBox="0 0 24 24" fill="none" xmlns="http://www.w3.org/2000/svg">
<path fill-rule="evenodd" clip-rule="evenodd" d="M11.9998 2.03906C6.50813 2.03906 2.03906 6.50766 2.03906 12C2.03906 17.4923 6.50812 21.9609 11.9998 21.9609C17.4915 21.9609 21.9606 17.4923 21.9606 12C21.9606 6.50766 17.4915 2.03906 11.9998 2.03906ZM16.658 9.58406L10.9991 15.2442C10.8848 15.3586 10.7352 15.4163 10.5834 15.4163C10.4339 15.4163 10.2843 15.3585 10.17 15.2442L7.33945 12.4144C7.11075 12.1856 7.11075 11.8144 7.33945 11.5856C7.56816 11.3569 7.93987 11.3569 8.16858 11.5856L10.5834 14.0016L15.831 8.75578C16.0598 8.52703 16.4315 8.52703 16.658 8.75578C16.8889 8.98458 16.8889 9.35536 16.658 9.58406Z" fill="#AD7DFE"/>
</svg>
